<mxfile host="65bd71144e">
    <diagram id="ycOPQLDIYc8ZWvYrpJF7" name="GuestHouse Amenities">
        <mxGraphModel dx="2194" dy="796" grid="1" gridSize="10" guides="1" tooltips="1" connect="1" arrows="1" fold="1" page="1" pageScale="1" pageWidth="827" pageHeight="1169" math="0" shadow="0">
            <root>
                <mxCell id="0"/>
                <mxCell id="1" parent="0"/>
                <mxCell id="32" value="Guest" style="swimlane;childLayout=stackLayout;horizontal=1;startSize=30;horizontalStack=0;rounded=1;fontSize=14;fontStyle=0;strokeWidth=2;resizeParent=0;resizeLast=1;shadow=0;dashed=0;align=center;fontFamily=JetBrains Mono;fillColor=#006666;strokeColor=#6c8ebf;gradientColor=#7EA6E0;gradientDirection=north;" parent="1" vertex="1">
                    <mxGeometry x="110" y="400" width="210" height="130" as="geometry"/>
                </mxCell>
                <mxCell id="33" value="+ ID (INT) PK&#10;+ Name (varchar) NN&#10;+ Phone no (varchar) U NN&#10;+ Email (varchar) UNN&#10;+ Address (text) &#10;+ &#10;" style="align=left;strokeColor=none;fillColor=none;spacingLeft=4;fontSize=12;verticalAlign=top;resizable=0;rotatable=0;part=1;fontFamily=JetBrains Mono;" parent="32" vertex="1">
                    <mxGeometry y="30" width="210" height="100" as="geometry"/>
                </mxCell>
                <mxCell id="34" value="GuestHouse" style="swimlane;childLayout=stackLayout;horizontal=1;startSize=30;horizontalStack=0;rounded=1;fontSize=14;fontStyle=0;strokeWidth=2;resizeParent=0;resizeLast=1;shadow=0;dashed=0;align=center;fontFamily=JetBrains Mono;arcSize=8;fillColor=#006666;strokeColor=#6c8ebf;gradientColor=#7ea6e0;gradientDirection=north;" parent="1" vertex="1">
                    <mxGeometry x="300" y="660" width="160" height="80" as="geometry"/>
                </mxCell>
                <mxCell id="35" value="+ ID (INT) PK&#10;+ Name (varchar) UNN" style="align=left;strokeColor=none;fillColor=none;spacingLeft=4;fontSize=12;verticalAlign=top;resizable=0;rotatable=0;part=1;fontFamily=JetBrains Mono;" parent="34" vertex="1">
                    <mxGeometry y="30" width="160" height="50" as="geometry"/>
                </mxCell>
                <mxCell id="36" value="Room" style="swimlane;childLayout=stackLayout;horizontal=1;startSize=30;horizontalStack=0;rounded=1;fontSize=14;fontStyle=0;strokeWidth=2;resizeParent=0;resizeLast=1;shadow=0;dashed=0;align=center;fontFamily=JetBrains Mono;fillColor=#006666;strokeColor=#6c8ebf;gradientColor=#7ea6e0;gradientDirection=north;" parent="1" vertex="1">
                    <mxGeometry x="-10" y="590" width="230" height="160" as="geometry"/>
                </mxCell>
                <mxCell id="37" value="+ ID (INT) PK&#10;+ RoomNo (varchar) NN&#10;+ GuestHouseId (INT) FK NN &#10;+ Block (varchar) &#10;+ vacant (Bool) NN&#10;+ Maintenance (Bool) &#10;+ type (INT) FK NN" style="align=left;strokeColor=none;fillColor=none;spacingLeft=4;fontSize=12;verticalAlign=top;resizable=0;rotatable=0;part=1;fontFamily=JetBrains Mono;" parent="36" vertex="1">
                    <mxGeometry y="30" width="230" height="130" as="geometry"/>
                </mxCell>
                <mxCell id="43" value="booking" style="swimlane;childLayout=stackLayout;horizontal=1;startSize=30;horizontalStack=0;rounded=1;fontSize=14;fontStyle=0;strokeWidth=2;resizeParent=0;resizeLast=1;shadow=0;dashed=0;align=center;fontFamily=JetBrains Mono;fillColor=#006600;strokeColor=#82b366;gradientColor=#97d077;gradientDirection=north;" parent="1" vertex="1">
                    <mxGeometry x="540" y="550" width="210" height="160" as="geometry"/>
                </mxCell>
                <mxCell id="44" value="+ ID (INT) PK&#10;+ GuestID (INT) FK NN&#10;+ RoomID (INT) FK NN&#10;+ Paid (Bool) NN&#10;+ PaymentOption (INT) FK NN&#10;+ CheckInDate (Date) NN&#10;+ CheckOutDate (Date) NN&#10;+ TotalAmount (INT)" style="align=left;strokeColor=none;fillColor=none;spacingLeft=4;fontSize=12;verticalAlign=top;resizable=0;rotatable=0;part=1;fontFamily=JetBrains Mono;" parent="43" vertex="1">
                    <mxGeometry y="30" width="210" height="130" as="geometry"/>
                </mxCell>
                <mxCell id="47" value="_RoomType" style="swimlane;childLayout=stackLayout;horizontal=1;startSize=30;horizontalStack=0;rounded=1;fontSize=14;fontStyle=0;strokeWidth=2;resizeParent=0;resizeLast=1;shadow=0;dashed=0;align=center;fontFamily=JetBrains Mono;fillColor=#f8cecc;strokeColor=#b85450;gradientColor=#ea6b66;" parent="1" vertex="1">
                    <mxGeometry x="-260" y="590" width="190" height="110" as="geometry"/>
                </mxCell>
                <mxCell id="48" value="+ ID (INT) PK&#10;+ OccupancyLimit (INT) NN&#10;+ Suite (Bool) NN&#10;+ Price (INT) NN" style="align=left;strokeColor=none;fillColor=none;spacingLeft=4;fontSize=12;verticalAlign=top;resizable=0;rotatable=0;part=1;fontFamily=JetBrains Mono;" parent="47" vertex="1">
                    <mxGeometry y="30" width="190" height="80" as="geometry"/>
                </mxCell>
                <mxCell id="81" value="" style="edgeStyle=entityRelationEdgeStyle;fontSize=12;html=1;endArrow=ERoneToMany;fontFamily=JetBrains Mono;fontColor=#F0F0F0;entryX=1;entryY=0.25;entryDx=0;entryDy=0;exitX=0;exitY=0.25;exitDx=0;exitDy=0;" parent="1" source="35" target="37" edge="1">
                    <mxGeometry width="100" height="100" relative="1" as="geometry">
                        <mxPoint x="370" y="570" as="sourcePoint"/>
                        <mxPoint x="470" y="470" as="targetPoint"/>
                    </mxGeometry>
                </mxCell>
                <mxCell id="83" value="" style="edgeStyle=entityRelationEdgeStyle;fontSize=12;html=1;endArrow=ERzeroToMany;endFill=1;fontFamily=JetBrains Mono;fontColor=#F0F0F0;entryX=0.008;entryY=0.312;entryDx=0;entryDy=0;entryPerimeter=0;exitX=1;exitY=0;exitDx=0;exitDy=0;" parent="1" source="37" target="44" edge="1">
                    <mxGeometry width="100" height="100" relative="1" as="geometry">
                        <mxPoint x="230" y="630" as="sourcePoint"/>
                        <mxPoint x="430" y="560" as="targetPoint"/>
                    </mxGeometry>
                </mxCell>
                <mxCell id="85" value="" style="edgeStyle=entityRelationEdgeStyle;fontSize=12;html=1;endArrow=ERoneToMany;fontFamily=JetBrains Mono;fontColor=#F0F0F0;entryX=-0.003;entryY=0.107;entryDx=0;entryDy=0;entryPerimeter=0;exitX=1;exitY=0;exitDx=0;exitDy=0;" parent="1" source="33" target="44" edge="1">
                    <mxGeometry width="100" height="100" relative="1" as="geometry">
                        <mxPoint x="360" y="410" as="sourcePoint"/>
                        <mxPoint x="405" y="530" as="targetPoint"/>
                    </mxGeometry>
                </mxCell>
                <mxCell id="88" value="" style="edgeStyle=entityRelationEdgeStyle;fontSize=12;html=1;endArrow=ERoneToMany;fontFamily=JetBrains Mono;fontColor=#F0F0F0;entryX=0;entryY=0.75;entryDx=0;entryDy=0;exitX=1;exitY=0;exitDx=0;exitDy=0;" parent="1" source="48" target="37" edge="1">
                    <mxGeometry width="100" height="100" relative="1" as="geometry">
                        <mxPoint x="-60" y="620" as="sourcePoint"/>
                        <mxPoint x="40" y="520" as="targetPoint"/>
                    </mxGeometry>
                </mxCell>
                <mxCell id="91" value="FoodItem" style="swimlane;childLayout=stackLayout;horizontal=1;startSize=30;horizontalStack=0;rounded=1;fontSize=14;fontStyle=0;strokeWidth=2;resizeParent=0;resizeLast=1;shadow=0;dashed=0;align=center;fontFamily=JetBrains Mono;fillColor=#006666;strokeColor=#6c8ebf;gradientColor=#7ea6e0;gradientDirection=north;" parent="1" vertex="1">
                    <mxGeometry x="-200" y="290" width="190" height="100" as="geometry"/>
                </mxCell>
                <mxCell id="92" value="+ ID (INT) PK&#10;+ Name (varchar) NN&#10;+ Price (INT) NN&#10;+ Availability (Bool) &#10;" style="align=left;strokeColor=none;fillColor=none;spacingLeft=4;fontSize=12;verticalAlign=top;resizable=0;rotatable=0;part=1;fontFamily=JetBrains Mono;" parent="91" vertex="1">
                    <mxGeometry y="30" width="190" height="70" as="geometry"/>
                </mxCell>
                <mxCell id="93" value="FoodOrders" style="swimlane;childLayout=stackLayout;horizontal=1;startSize=30;horizontalStack=0;rounded=1;fontSize=14;fontStyle=0;strokeWidth=2;resizeParent=0;resizeLast=1;shadow=0;dashed=0;align=center;fontFamily=JetBrains Mono;fillColor=#006600;strokeColor=#82b366;gradientColor=#97d077;gradientDirection=north;" parent="1" vertex="1">
                    <mxGeometry x="480" y="230" width="210" height="130" as="geometry"/>
                </mxCell>
                <mxCell id="94" value="+ ID (INT) PK&#10;+ GuestID (INT) FK NN&#10;+ Paid (Bool) NN&#10;+ PaymentOption (INT) FK NN&#10;+ TotalAmount (INT) NN&#10;+ BookingID (INT) FK NN" style="align=left;strokeColor=none;fillColor=none;spacingLeft=4;fontSize=12;verticalAlign=top;resizable=0;rotatable=0;part=1;fontFamily=JetBrains Mono;" parent="93" vertex="1">
                    <mxGeometry y="30" width="210" height="100" as="geometry"/>
                </mxCell>
                <mxCell id="97" value="FoodItemBooking" style="swimlane;childLayout=stackLayout;horizontal=1;startSize=30;horizontalStack=0;rounded=1;fontSize=14;fontStyle=0;strokeWidth=2;resizeParent=0;resizeLast=1;shadow=0;dashed=0;align=center;fontFamily=JetBrains Mono;fillColor=#006600;strokeColor=#82b366;gradientColor=#97d077;gradientDirection=north;" parent="1" vertex="1">
                    <mxGeometry x="50" y="210" width="210" height="90" as="geometry"/>
                </mxCell>
                <mxCell id="98" value="+ ID (INT) PK&#10;+ OrderId (INT) FK&#10;+ FoodItemId (INT) FK" style="align=left;strokeColor=none;fillColor=none;spacingLeft=4;fontSize=12;verticalAlign=top;resizable=0;rotatable=0;part=1;fontFamily=JetBrains Mono;" parent="97" vertex="1">
                    <mxGeometry y="30" width="210" height="60" as="geometry"/>
                </mxCell>
                <mxCell id="99" value="" style="edgeStyle=entityRelationEdgeStyle;fontSize=12;html=1;endArrow=ERzeroToMany;endFill=1;fontFamily=JetBrains Mono;fontColor=#F0F0F0;entryX=0;entryY=0.75;entryDx=0;entryDy=0;exitX=1;exitY=0.75;exitDx=0;exitDy=0;" parent="1" source="92" target="98" edge="1">
                    <mxGeometry width="100" height="100" relative="1" as="geometry">
                        <mxPoint x="-60" y="390" as="sourcePoint"/>
                        <mxPoint x="40" y="290" as="targetPoint"/>
                    </mxGeometry>
                </mxCell>
                <mxCell id="100" value="" style="fontSize=12;html=1;endArrow=ERoneToMany;fontFamily=JetBrains Mono;fontColor=#F0F0F0;entryX=0.002;entryY=0.1;entryDx=0;entryDy=0;exitX=1;exitY=0.5;exitDx=0;exitDy=0;entryPerimeter=0;" parent="1" source="98" target="94" edge="1">
                    <mxGeometry width="100" height="100" relative="1" as="geometry">
                        <mxPoint x="330" y="330" as="sourcePoint"/>
                        <mxPoint x="320" y="230" as="targetPoint"/>
                    </mxGeometry>
                </mxCell>
                <mxCell id="102" value="" style="edgeStyle=entityRelationEdgeStyle;fontSize=12;html=1;endArrow=ERzeroToMany;endFill=1;fontFamily=JetBrains Mono;fontColor=#F0F0F0;elbow=vertical;exitX=1;exitY=0;exitDx=0;exitDy=0;entryX=0;entryY=0.5;entryDx=0;entryDy=0;" parent="1" source="33" target="93" edge="1">
                    <mxGeometry width="100" height="100" relative="1" as="geometry">
                        <mxPoint x="410" y="470" as="sourcePoint"/>
                        <mxPoint x="510" y="370" as="targetPoint"/>
                    </mxGeometry>
                </mxCell>
                <mxCell id="103" value="Staff" style="swimlane;childLayout=stackLayout;horizontal=1;startSize=30;horizontalStack=0;rounded=1;fontSize=14;fontStyle=0;strokeWidth=2;resizeParent=0;resizeLast=1;shadow=0;dashed=0;align=center;fontFamily=JetBrains Mono;fillColor=#006666;strokeColor=#6c8ebf;gradientColor=#7ea6e0;gradientDirection=north;" parent="1" vertex="1">
                    <mxGeometry x="140" y="1180" width="210" height="160" as="geometry"/>
                </mxCell>
                <mxCell id="104" value="+ ID (INT) PK&#10;+ Name (varchar) NN&#10;+ Phone no (varchar) U NN&#10;+ Email (varchar) UNN&#10;+ Address (text) &#10;+ DesignationID (INT) FK NN&#10;+ OnDuty (Bool) NN&#10;+ ShiftID (INT)" style="align=left;strokeColor=none;fillColor=none;spacingLeft=4;fontSize=12;verticalAlign=top;resizable=0;rotatable=0;part=1;fontFamily=JetBrains Mono;" parent="103" vertex="1">
                    <mxGeometry y="30" width="210" height="130" as="geometry"/>
                </mxCell>
                <mxCell id="106" value="DutyLog" style="swimlane;childLayout=stackLayout;horizontal=1;startSize=30;horizontalStack=0;rounded=1;fontSize=14;fontStyle=0;strokeWidth=2;resizeParent=0;resizeLast=1;shadow=0;dashed=0;align=center;fontFamily=JetBrains Mono;fillColor=#006600;strokeColor=#82b366;gradientColor=#97d077;gradientDirection=north;" parent="1" vertex="1">
                    <mxGeometry x="450" y="1200" width="210" height="160" as="geometry"/>
                </mxCell>
                <mxCell id="107" value="+ ID (INT) PK&#10;+ StaffID (INT) FK NN&#10;+ checkinTime (Datetime)&#10;+ checkoutTime (Datetime)" style="align=left;strokeColor=none;fillColor=none;spacingLeft=4;fontSize=12;verticalAlign=top;resizable=0;rotatable=0;part=1;fontFamily=JetBrains Mono;" parent="106" vertex="1">
                    <mxGeometry y="30" width="210" height="130" as="geometry"/>
                </mxCell>
                <mxCell id="108" value="_Designation" style="swimlane;childLayout=stackLayout;horizontal=1;startSize=30;horizontalStack=0;rounded=1;fontSize=14;fontStyle=0;strokeWidth=2;resizeParent=0;resizeLast=1;shadow=0;dashed=0;align=center;fontFamily=JetBrains Mono;fillColor=#f8cecc;strokeColor=#b85450;gradientColor=#ea6b66;" parent="1" vertex="1">
                    <mxGeometry x="-120" y="1180" width="200" height="110" as="geometry"/>
                </mxCell>
                <mxCell id="109" value="+ ID (INT) PK&#10;+ Designation (varchar) NN&#10;+ Salary (INT) " style="align=left;strokeColor=none;fillColor=none;spacingLeft=4;fontSize=12;verticalAlign=top;resizable=0;rotatable=0;part=1;fontFamily=JetBrains Mono;" parent="108" vertex="1">
                    <mxGeometry y="30" width="200" height="80" as="geometry"/>
                </mxCell>
                <mxCell id="110" value="" style="edgeStyle=entityRelationEdgeStyle;fontSize=12;html=1;endArrow=ERoneToMany;fontFamily=JetBrains Mono;fontColor=#F0F0F0;entryX=0;entryY=0.75;entryDx=0;entryDy=0;exitX=1;exitY=0.25;exitDx=0;exitDy=0;" parent="1" source="109" target="104" edge="1">
                    <mxGeometry width="100" height="100" relative="1" as="geometry">
                        <mxPoint x="60" y="1242.5" as="sourcePoint"/>
                        <mxPoint x="120" y="1340" as="targetPoint"/>
                    </mxGeometry>
                </mxCell>
                <mxCell id="111" value="" style="edgeStyle=entityRelationEdgeStyle;fontSize=12;html=1;endArrow=ERzeroToMany;endFill=1;fontFamily=JetBrains Mono;fontColor=#F0F0F0;entryX=0;entryY=0.25;entryDx=0;entryDy=0;exitX=1;exitY=0;exitDx=0;exitDy=0;" parent="1" source="104" target="106" edge="1">
                    <mxGeometry width="100" height="100" relative="1" as="geometry">
                        <mxPoint x="370" y="1241" as="sourcePoint"/>
                        <mxPoint x="591.6799999999998" y="1240.5600000000002" as="targetPoint"/>
                    </mxGeometry>
                </mxCell>
                <mxCell id="113" value="_PaymentOptions" style="swimlane;childLayout=stackLayout;horizontal=1;startSize=30;horizontalStack=0;rounded=1;fontSize=14;fontStyle=0;strokeWidth=2;resizeParent=0;resizeLast=1;shadow=0;dashed=0;align=center;fontFamily=JetBrains Mono;fillColor=#f8cecc;strokeColor=#b85450;gradientColor=#ea6b66;" parent="1" vertex="1">
                    <mxGeometry x="790" y="270" width="190" height="80" as="geometry"/>
                </mxCell>
                <mxCell id="114" value="+ ID (INT) PK&#10;+ Option (varchar) UNN" style="align=left;strokeColor=none;fillColor=none;spacingLeft=4;fontSize=12;verticalAlign=top;resizable=0;rotatable=0;part=1;fontFamily=JetBrains Mono;" parent="113" vertex="1">
                    <mxGeometry y="30" width="190" height="50" as="geometry"/>
                </mxCell>
                <mxCell id="115" value="" style="edgeStyle=entityRelationEdgeStyle;fontSize=12;html=1;endArrow=ERzeroToMany;endFill=1;fontFamily=JetBrains Mono;fontColor=#F0F0F0;elbow=vertical;entryX=1;entryY=0.25;entryDx=0;entryDy=0;exitX=0;exitY=0.25;exitDx=0;exitDy=0;" parent="1" source="114" target="44" edge="1">
                    <mxGeometry width="100" height="100" relative="1" as="geometry">
                        <mxPoint x="980" y="520" as="sourcePoint"/>
                        <mxPoint x="800" y="580" as="targetPoint"/>
                    </mxGeometry>
                </mxCell>
                <mxCell id="117" value="" style="edgeStyle=entityRelationEdgeStyle;fontSize=12;html=1;endArrow=ERzeroToMany;endFill=1;fontFamily=JetBrains Mono;fontColor=#F0F0F0;elbow=vertical;entryX=1;entryY=0.5;entryDx=0;entryDy=0;exitX=0;exitY=0.25;exitDx=0;exitDy=0;" parent="1" source="114" target="94" edge="1">
                    <mxGeometry width="100" height="100" relative="1" as="geometry">
                        <mxPoint x="820" y="330" as="sourcePoint"/>
                        <mxPoint x="740" y="280" as="targetPoint"/>
                    </mxGeometry>
                </mxCell>
                <mxCell id="118" value="MaintenanceLog" style="swimlane;childLayout=stackLayout;horizontal=1;startSize=30;horizontalStack=0;rounded=1;fontSize=14;fontStyle=0;strokeWidth=2;resizeParent=0;resizeLast=1;shadow=0;dashed=0;align=center;fontFamily=JetBrains Mono;fillColor=#006600;strokeColor=#82b366;gradientColor=#97d077;gradientDirection=north;" parent="1" vertex="1">
                    <mxGeometry x="280" y="910" width="210" height="100" as="geometry"/>
                </mxCell>
                <mxCell id="119" value="+ ID (INT) PK&#10;+ StaffID (INT) FK NN&#10;+ RoomID (INT) FK NN&#10;+ LogTime (DateTime) NN" style="align=left;strokeColor=none;fillColor=none;spacingLeft=4;fontSize=12;verticalAlign=top;resizable=0;rotatable=0;part=1;fontFamily=JetBrains Mono;" parent="118" vertex="1">
                    <mxGeometry y="30" width="210" height="70" as="geometry"/>
                </mxCell>
                <mxCell id="121" value="" style="edgeStyle=entityRelationEdgeStyle;fontSize=12;html=1;endArrow=ERzeroToMany;endFill=1;entryX=0;entryY=0.5;entryDx=0;entryDy=0;exitX=1;exitY=0.5;exitDx=0;exitDy=0;" parent="1" source="37" target="118" edge="1">
                    <mxGeometry width="100" height="100" relative="1" as="geometry">
                        <mxPoint x="160" y="950" as="sourcePoint"/>
                        <mxPoint x="120" y="900" as="targetPoint"/>
                    </mxGeometry>
                </mxCell>
                <mxCell id="122" value="" style="fontSize=12;html=1;endArrow=ERzeroToMany;endFill=1;entryX=0;entryY=0.5;entryDx=0;entryDy=0;exitX=1;exitY=0.5;exitDx=0;exitDy=0;rounded=1;jumpStyle=none;edgeStyle=orthogonalEdgeStyle;" parent="1" source="104" target="119" edge="1">
                    <mxGeometry width="100" height="100" relative="1" as="geometry">
                        <mxPoint x="115" y="1128" as="sourcePoint"/>
                        <mxPoint x="195" y="1050" as="targetPoint"/>
                        <Array as="points">
                            <mxPoint x="385" y="1275"/>
                            <mxPoint x="385" y="1110"/>
                            <mxPoint x="250" y="1110"/>
                            <mxPoint x="250" y="975"/>
                        </Array>
                    </mxGeometry>
                </mxCell>
                <mxCell id="123" value="_StaffShift" style="swimlane;childLayout=stackLayout;horizontal=1;startSize=30;horizontalStack=0;rounded=1;fontSize=14;fontStyle=0;strokeWidth=2;resizeParent=0;resizeLast=1;shadow=0;dashed=0;align=center;fontFamily=JetBrains Mono;fillColor=#f8cecc;strokeColor=#b85450;gradientColor=#ea6b66;" parent="1" vertex="1">
                    <mxGeometry x="150" y="1390" width="200" height="90" as="geometry"/>
                </mxCell>
                <mxCell id="124" value="+ ID (INT) PK&#10;+ EntryTime (TIME) NN&#10;+ ExitTime (TIME) " style="align=left;strokeColor=none;fillColor=none;spacingLeft=4;fontSize=12;verticalAlign=top;resizable=0;rotatable=0;part=1;fontFamily=JetBrains Mono;" parent="123" vertex="1">
                    <mxGeometry y="30" width="200" height="60" as="geometry"/>
                </mxCell>
                <mxCell id="125" value="" style="edgeStyle=orthogonalEdgeStyle;fontSize=12;html=1;endArrow=ERzeroToMany;endFill=1;exitX=0;exitY=0.25;exitDx=0;exitDy=0;entryX=1;entryY=0.838;entryDx=0;entryDy=0;entryPerimeter=0;" parent="1" source="124" target="104" edge="1">
                    <mxGeometry width="100" height="100" relative="1" as="geometry">
                        <mxPoint x="-20" y="1460" as="sourcePoint"/>
                        <mxPoint x="400" y="1320" as="targetPoint"/>
                        <Array as="points">
                            <mxPoint x="110" y="1435"/>
                            <mxPoint x="110" y="1360"/>
                            <mxPoint x="390" y="1360"/>
                            <mxPoint x="390" y="1319"/>
                        </Array>
                    </mxGeometry>
                </mxCell>
                <mxCell id="126" value="" style="edgeStyle=orthogonalEdgeStyle;fontSize=12;html=1;endArrow=ERoneToMany;exitX=0;exitY=0;exitDx=0;exitDy=0;entryX=0.25;entryY=1;entryDx=0;entryDy=0;" parent="1" source="44" target="94" edge="1">
                    <mxGeometry width="100" height="100" relative="1" as="geometry">
                        <mxPoint x="460" y="520" as="sourcePoint"/>
                        <mxPoint x="540" y="410" as="targetPoint"/>
                        <Array as="points">
                            <mxPoint x="510" y="580"/>
                            <mxPoint x="510" y="420"/>
                            <mxPoint x="533" y="420"/>
                        </Array>
                    </mxGeometry>
                </mxCell>
            </root>
        </mxGraphModel>
    </diagram>
    <diagram id="__sHbb8RoXKBiPDCWij3" name="Market Place">
        <mxGraphModel dx="2194" dy="1965" grid="1" gridSize="10" guides="1" tooltips="1" connect="1" arrows="1" fold="1" page="1" pageScale="1" pageWidth="827" pageHeight="1169" math="0" shadow="0">
            <root>
                <mxCell id="6bXMta0XLCTbJHsE31_Q-0"/>
                <mxCell id="6bXMta0XLCTbJHsE31_Q-1" parent="6bXMta0XLCTbJHsE31_Q-0"/>
                <mxCell id="6HrNoJHkE9Jg0ZCRJ_LL-0" value="Shop" style="swimlane;childLayout=stackLayout;horizontal=1;startSize=30;horizontalStack=0;rounded=1;fontSize=14;fontStyle=0;strokeWidth=2;resizeParent=0;resizeLast=1;shadow=0;dashed=0;align=center;fontFamily=JetBrains Mono;fillColor=#006666;strokeColor=#6c8ebf;gradientColor=#7ea6e0;gradientDirection=north;" parent="6bXMta0XLCTbJHsE31_Q-1" vertex="1">
                    <mxGeometry x="-400" y="180" width="190" height="100" as="geometry"/>
                </mxCell>
                <mxCell id="6HrNoJHkE9Jg0ZCRJ_LL-1" value="+ shop_id (int) PK&#10;+ name (varchar(255)) NN" style="align=left;strokeColor=none;fillColor=none;spacingLeft=4;fontSize=12;verticalAlign=top;resizable=0;rotatable=0;part=1;fontFamily=JetBrains Mono;" parent="6HrNoJHkE9Jg0ZCRJ_LL-0" vertex="1">
                    <mxGeometry y="30" width="190" height="70" as="geometry"/>
                </mxCell>
                <mxCell id="6HrNoJHkE9Jg0ZCRJ_LL-4" value="Shopkeeper" style="swimlane;childLayout=stackLayout;horizontal=1;startSize=30;horizontalStack=0;rounded=1;fontSize=14;fontStyle=0;strokeWidth=2;resizeParent=0;resizeLast=1;shadow=0;dashed=0;align=center;fontFamily=JetBrains Mono;fillColor=#60a917;strokeColor=#2D7600;gradientDirection=north;fontColor=#ffffff;" parent="6bXMta0XLCTbJHsE31_Q-1" vertex="1">
                    <mxGeometry x="-50" width="190" height="130" as="geometry"/>
                </mxCell>
                <mxCell id="6HrNoJHkE9Jg0ZCRJ_LL-5" value="+ keepr_id (int) PK&#10;+ shop_id (int) FK&#10;+ name (varchar(50)) NN&#10;+ ph_no (varchar(10)) NN&#10;+ acc_no (varchar(15))&#10;+ address (varchar(255))" style="align=left;strokeColor=none;fillColor=none;spacingLeft=4;fontSize=12;verticalAlign=top;resizable=0;rotatable=0;part=1;fontFamily=JetBrains Mono;" parent="6HrNoJHkE9Jg0ZCRJ_LL-4" vertex="1">
                    <mxGeometry y="30" width="190" height="100" as="geometry"/>
                </mxCell>
                <mxCell id="6HrNoJHkE9Jg0ZCRJ_LL-6" value="License" style="swimlane;childLayout=stackLayout;horizontal=1;startSize=30;horizontalStack=0;rounded=1;fontSize=14;fontStyle=0;strokeWidth=2;resizeParent=0;resizeLast=1;shadow=0;dashed=0;align=center;fontFamily=JetBrains Mono;fillColor=#60a917;strokeColor=#2D7600;gradientDirection=north;fontColor=#ffffff;" parent="6bXMta0XLCTbJHsE31_Q-1" vertex="1">
                    <mxGeometry x="-390" y="330" width="190" height="110" as="geometry"/>
                </mxCell>
                <mxCell id="6HrNoJHkE9Jg0ZCRJ_LL-7" value="+ lic_id (int) PK&#10;+ shop_id (int) FK&#10;+ issue_date (date) NN&#10;+ expire_date (date) NN&#10;+ lic_status (bool) NN" style="align=left;strokeColor=none;fillColor=none;spacingLeft=4;fontSize=12;verticalAlign=top;resizable=0;rotatable=0;part=1;fontFamily=JetBrains Mono;" parent="6HrNoJHkE9Jg0ZCRJ_LL-6" vertex="1">
                    <mxGeometry y="30" width="190" height="80" as="geometry"/>
                </mxCell>
                <mxCell id="6HrNoJHkE9Jg0ZCRJ_LL-8" value="Extension" style="swimlane;childLayout=stackLayout;horizontal=1;startSize=30;horizontalStack=0;rounded=1;fontSize=14;fontStyle=0;strokeWidth=2;resizeParent=0;resizeLast=1;shadow=0;dashed=0;align=center;fontFamily=JetBrains Mono;fillColor=#d80073;strokeColor=#A50040;gradientDirection=north;fontColor=#ffffff;" parent="6bXMta0XLCTbJHsE31_Q-1" vertex="1">
                    <mxGeometry x="-40" y="250" width="270" height="130" as="geometry"/>
                </mxCell>
                <mxCell id="6HrNoJHkE9Jg0ZCRJ_LL-9" value="+ ext_id (int) PK&#10;+ lic_id (int) FK&#10;+ ext_period (int) NN&#10;+ ext_fee (int) NN&#10;+ mod_pay (enum('cash', 'digital'))&#10;+ ext_status (bool) NN" style="align=left;strokeColor=none;fillColor=none;spacingLeft=4;fontSize=12;verticalAlign=top;resizable=0;rotatable=0;part=1;fontFamily=JetBrains Mono;" parent="6HrNoJHkE9Jg0ZCRJ_LL-8" vertex="1">
                    <mxGeometry y="30" width="270" height="100" as="geometry"/>
                </mxCell>
                <mxCell id="6HrNoJHkE9Jg0ZCRJ_LL-12" value="Feedback" style="swimlane;childLayout=stackLayout;horizontal=1;startSize=30;horizontalStack=0;rounded=1;fontSize=14;fontStyle=0;strokeWidth=2;resizeParent=0;resizeLast=1;shadow=0;dashed=0;align=center;fontFamily=JetBrains Mono;fillColor=#60a917;strokeColor=#2D7600;gradientDirection=north;fontColor=#ffffff;" parent="6bXMta0XLCTbJHsE31_Q-1" vertex="1">
                    <mxGeometry x="-780" y="160" width="190" height="100" as="geometry"/>
                </mxCell>
                <mxCell id="ucMLVQ2BnKjTU5NZl_fI-1" style="edgeStyle=none;html=1;" parent="6HrNoJHkE9Jg0ZCRJ_LL-12" source="6HrNoJHkE9Jg0ZCRJ_LL-13" target="6HrNoJHkE9Jg0ZCRJ_LL-12" edge="1">
                    <mxGeometry relative="1" as="geometry"/>
                </mxCell>
                <mxCell id="6HrNoJHkE9Jg0ZCRJ_LL-13" value="+ feedbk_id (int) PK&#10;+ shop_id (int) FK&#10;+ rating (int) NN&#10;+ remark (varchar(255)) " style="align=left;strokeColor=none;fillColor=none;spacingLeft=4;fontSize=12;verticalAlign=top;resizable=0;rotatable=0;part=1;fontFamily=JetBrains Mono;" parent="6HrNoJHkE9Jg0ZCRJ_LL-12" vertex="1">
                    <mxGeometry y="30" width="190" height="70" as="geometry"/>
                </mxCell>
                <mxCell id="6HrNoJHkE9Jg0ZCRJ_LL-17" value="Bill" style="swimlane;childLayout=stackLayout;horizontal=1;startSize=30;horizontalStack=0;rounded=1;fontSize=14;fontStyle=0;strokeWidth=2;resizeParent=0;resizeLast=1;shadow=0;dashed=0;align=center;fontFamily=JetBrains Mono;fillColor=#60a917;strokeColor=#2D7600;gradientDirection=north;fontColor=#ffffff;" parent="6bXMta0XLCTbJHsE31_Q-1" vertex="1">
                    <mxGeometry x="-320" y="-170" width="360" height="140" as="geometry"/>
                </mxCell>
                <mxCell id="6HrNoJHkE9Jg0ZCRJ_LL-18" value="+ bill_id (int) PK&#10;+ shop_id (int) FK&#10;+ type (enum('water', 'electricity', 'rent')) NN&#10;+ amount (int) NN&#10;+ mod_pay (enum('cash', 'digital'))&#10;+ bill_status (bool) NN" style="align=left;strokeColor=none;fillColor=none;spacingLeft=4;fontSize=12;verticalAlign=top;resizable=0;rotatable=0;part=1;fontFamily=JetBrains Mono;" parent="6HrNoJHkE9Jg0ZCRJ_LL-17" vertex="1">
                    <mxGeometry y="30" width="360" height="110" as="geometry"/>
                </mxCell>
                <mxCell id="BRpuSmCQ88ZL44ktVtGb-1" value="" style="edgeStyle=orthogonalEdgeStyle;fontSize=12;html=1;endArrow=ERzeroToMany;endFill=1;fontFamily=JetBrains Mono;fontColor=#F0F0F0;entryX=0;entryY=0.25;entryDx=0;entryDy=0;exitX=1.005;exitY=0.163;exitDx=0;exitDy=0;exitPerimeter=0;" parent="6bXMta0XLCTbJHsE31_Q-1" source="6HrNoJHkE9Jg0ZCRJ_LL-7" target="6HrNoJHkE9Jg0ZCRJ_LL-9" edge="1">
                    <mxGeometry width="100" height="100" relative="1" as="geometry">
                        <mxPoint x="-200" y="370" as="sourcePoint"/>
                        <mxPoint x="-140" y="250" as="targetPoint"/>
                    </mxGeometry>
                </mxCell>
                <mxCell id="YKmwoi-gXrKSodanul18-1" style="edgeStyle=none;html=1;exitX=1;exitY=0;exitDx=0;exitDy=0;entryX=0;entryY=0.25;entryDx=0;entryDy=0;endArrow=ERzeroToMany;endFill=0;" parent="6bXMta0XLCTbJHsE31_Q-1" source="6HrNoJHkE9Jg0ZCRJ_LL-1" target="6HrNoJHkE9Jg0ZCRJ_LL-5" edge="1">
                    <mxGeometry relative="1" as="geometry">
                        <mxPoint x="-170" y="210" as="targetPoint"/>
                        <Array as="points">
                            <mxPoint x="-170" y="210"/>
                            <mxPoint x="-170" y="160"/>
                            <mxPoint x="-170" y="55"/>
                            <mxPoint x="-100" y="55"/>
                        </Array>
                    </mxGeometry>
                </mxCell>
                <mxCell id="YKmwoi-gXrKSodanul18-5" style="edgeStyle=none;html=1;endArrow=ERzeroToMany;endFill=0;entryX=0;entryY=0.25;entryDx=0;entryDy=0;exitX=0;exitY=0;exitDx=0;exitDy=0;" parent="6bXMta0XLCTbJHsE31_Q-1" source="6HrNoJHkE9Jg0ZCRJ_LL-1" target="6HrNoJHkE9Jg0ZCRJ_LL-18" edge="1">
                    <mxGeometry relative="1" as="geometry">
                        <mxPoint x="-430" y="70" as="targetPoint"/>
                        <mxPoint x="-440" y="245" as="sourcePoint"/>
                        <Array as="points">
                            <mxPoint x="-430" y="210"/>
                            <mxPoint x="-430" y="70"/>
                            <mxPoint x="-430" y="-112"/>
                        </Array>
                    </mxGeometry>
                </mxCell>
                <mxCell id="YKmwoi-gXrKSodanul18-6" style="edgeStyle=none;html=1;exitX=0;exitY=0;exitDx=0;exitDy=0;entryX=1;entryY=0.25;entryDx=0;entryDy=0;endArrow=ERzeroToMany;endFill=0;" parent="6bXMta0XLCTbJHsE31_Q-1" source="6HrNoJHkE9Jg0ZCRJ_LL-1" target="6HrNoJHkE9Jg0ZCRJ_LL-13" edge="1">
                    <mxGeometry relative="1" as="geometry">
                        <Array as="points">
                            <mxPoint x="-440" y="210"/>
                        </Array>
                    </mxGeometry>
                </mxCell>
                <mxCell id="YKmwoi-gXrKSodanul18-7" style="edgeStyle=none;html=1;endArrow=ERzeroToMany;endFill=0;entryX=0;entryY=0.5;entryDx=0;entryDy=0;exitX=0;exitY=0.5;exitDx=0;exitDy=0;" parent="6bXMta0XLCTbJHsE31_Q-1" source="6HrNoJHkE9Jg0ZCRJ_LL-0" target="6HrNoJHkE9Jg0ZCRJ_LL-6" edge="1">
                    <mxGeometry relative="1" as="geometry">
                        <mxPoint x="-430" y="390" as="targetPoint"/>
                        <Array as="points">
                            <mxPoint x="-430" y="230"/>
                            <mxPoint x="-430" y="385"/>
                        </Array>
                        <mxPoint x="-410" y="210" as="sourcePoint"/>
                    </mxGeometry>
                </mxCell>
            </root>
        </mxGraphModel>
    </diagram>
</mxfile>